<svg xmlns="http://www.w3.org/2000/svg" viewBox="0 0 1024 1024">
  <path fill="#409eff" d="M512 64C264.6 64 64 264.6 64 512s200.6 448 448 448 448-200.6 448-448S759.4 64 512 64zm0 820c-205.4 0-372-166.6-372-372s166.6-372 372-372 372 166.6 372 372-166.6 372-372 372z"/>
  <path fill="#409eff" d="M512 192c-17.7 0-32 14.3-32 32v256c0 17.7 14.3 32 32 32s32-14.3 32-32V224c0-17.7-14.3-32-32-32zm0 544c-17.7 0-32 14.3-32 32v128c0 17.7 14.3 32 32 32s32-14.3 32-32V768c0-17.7-14.3-32-32-32zm256-320h-64c-17.7 0-32 14.3-32 32v448c0 17.7 14.3 32 32 32h64c17.7 0 32-14.3 32-32V448c0-17.7-14.3-32-32-32zm-192 0h-64c-17.7 0-32 14.3-32 32v448c0 17.7 14.3 32 32 32h64c17.7 0 32-14.3 32-32V480c0-17.7-14.3-32-32-32z"/>
</svg>
